<mxfile host="app.diagrams.net" agent="Mozilla/5.0 (X11; Linux x86_64) AppleWebKit/537.36 (KHTML, like Gecko) Chrome/128.0.0.0 Safari/537.36" version="24.7.12" pages="2">
  <diagram name="User-Stories" id="d4uwj6tCgz9i2PZq0UWi">
    <mxGraphModel dx="1434" dy="759" grid="1" gridSize="10" guides="1" tooltips="1" connect="1" arrows="1" fold="1" page="1" pageScale="1" pageWidth="827" pageHeight="1169" math="0" shadow="0">
      <root>
        <mxCell id="0" />
        <mxCell id="1" parent="0" />
        <mxCell id="0QuNCbMEVKOjohtMGqe6-1" value="&lt;h1 style=&quot;margin-top: 0px;&quot;&gt;User Stories&lt;/h1&gt;&lt;p&gt;&lt;/p&gt;&lt;ol&gt;&lt;li&gt;Als User kann ich die Web-Applikation öffnen und mich mit meinem Spotify-Account verbinden&lt;/li&gt;&lt;li&gt;Ist die aktuelle Session mit einem Spotify-Account verbunden, kann ich als User mittels Kamera einen QR-Code scannen&lt;/li&gt;&lt;li&gt;Zeigt der gescannte QR Code auf ein Spotify Song, wird dieser auf einem ausgewählten Gerät abgespielt&lt;/li&gt;&lt;li&gt;Als User habe ich die Möglichkeit das Playback der Songs zu stoppen und einen Song neu zu starten&lt;/li&gt;&lt;li&gt;Mir werden alle aktuell verbunden Geräte mit meinem Spotify Account angezeigt und ich kann auswählen, auf welchem ich den Song abspielen will&lt;/li&gt;&lt;/ol&gt;&lt;p&gt;&lt;/p&gt;" style="text;html=1;whiteSpace=wrap;overflow=hidden;rounded=0;" vertex="1" parent="1">
          <mxGeometry x="40" y="40" width="670" height="160" as="geometry" />
        </mxCell>
      </root>
    </mxGraphModel>
  </diagram>
  <diagram id="V6mQSRU9dBbsRQHZ9BpW" name="Module">
    <mxGraphModel dx="1434" dy="759" grid="1" gridSize="10" guides="1" tooltips="1" connect="1" arrows="1" fold="1" page="1" pageScale="1" pageWidth="827" pageHeight="1169" math="0" shadow="0">
      <root>
        <mxCell id="0" />
        <mxCell id="1" parent="0" />
        <mxCell id="gsx3a0Vo5uwZPAAHrvW5-1" value="Dister" style="shape=module;align=left;spacingLeft=20;align=center;verticalAlign=top;whiteSpace=wrap;html=1;" parent="1" vertex="1">
          <mxGeometry x="90" y="50" width="190" height="350" as="geometry" />
        </mxCell>
        <mxCell id="fCUDUSnnxGfV7PFgLBU8-1" value="model" style="shape=module;align=left;spacingLeft=20;align=center;verticalAlign=top;whiteSpace=wrap;html=1;" vertex="1" parent="1">
          <mxGeometry x="134" y="330" width="100" height="50" as="geometry" />
        </mxCell>
        <mxCell id="fCUDUSnnxGfV7PFgLBU8-11" style="edgeStyle=orthogonalEdgeStyle;rounded=0;orthogonalLoop=1;jettySize=auto;html=1;" edge="1" parent="1" source="fCUDUSnnxGfV7PFgLBU8-2" target="fCUDUSnnxGfV7PFgLBU8-1">
          <mxGeometry relative="1" as="geometry" />
        </mxCell>
        <mxCell id="fCUDUSnnxGfV7PFgLBU8-2" value="application" style="shape=module;align=left;spacingLeft=20;align=center;verticalAlign=top;whiteSpace=wrap;html=1;" vertex="1" parent="1">
          <mxGeometry x="134" y="250" width="100" height="50" as="geometry" />
        </mxCell>
        <mxCell id="fCUDUSnnxGfV7PFgLBU8-10" style="edgeStyle=orthogonalEdgeStyle;rounded=0;orthogonalLoop=1;jettySize=auto;html=1;" edge="1" parent="1" source="fCUDUSnnxGfV7PFgLBU8-3" target="fCUDUSnnxGfV7PFgLBU8-2">
          <mxGeometry relative="1" as="geometry" />
        </mxCell>
        <mxCell id="fCUDUSnnxGfV7PFgLBU8-3" value="adapter" style="shape=module;align=left;spacingLeft=20;align=center;verticalAlign=top;whiteSpace=wrap;html=1;" vertex="1" parent="1">
          <mxGeometry x="134" y="170" width="100" height="50" as="geometry" />
        </mxCell>
        <mxCell id="fCUDUSnnxGfV7PFgLBU8-9" style="edgeStyle=orthogonalEdgeStyle;rounded=0;orthogonalLoop=1;jettySize=auto;html=1;" edge="1" parent="1" source="fCUDUSnnxGfV7PFgLBU8-4" target="fCUDUSnnxGfV7PFgLBU8-3">
          <mxGeometry relative="1" as="geometry" />
        </mxCell>
        <mxCell id="fCUDUSnnxGfV7PFgLBU8-4" value="bootstrap" style="shape=module;align=left;spacingLeft=20;align=center;verticalAlign=top;whiteSpace=wrap;html=1;" vertex="1" parent="1">
          <mxGeometry x="134" y="90" width="100" height="50" as="geometry" />
        </mxCell>
        <mxCell id="fCUDUSnnxGfV7PFgLBU8-12" value="model" style="shape=module;align=left;spacingLeft=20;align=center;verticalAlign=top;whiteSpace=wrap;html=1;" vertex="1" parent="1">
          <mxGeometry x="90" y="477" width="460" height="473" as="geometry" />
        </mxCell>
        <mxCell id="fCUDUSnnxGfV7PFgLBU8-13" value="Player" style="swimlane;fontStyle=1;align=center;verticalAlign=top;childLayout=stackLayout;horizontal=1;startSize=26;horizontalStack=0;resizeParent=1;resizeParentMax=0;resizeLast=0;collapsible=1;marginBottom=0;whiteSpace=wrap;html=1;" vertex="1" parent="1">
          <mxGeometry x="134" y="540" width="210" height="268" as="geometry" />
        </mxCell>
        <mxCell id="fCUDUSnnxGfV7PFgLBU8-14" value="- id: PlayerId" style="text;strokeColor=none;fillColor=none;align=left;verticalAlign=top;spacingLeft=4;spacingRight=4;overflow=hidden;rotatable=0;points=[[0,0.5],[1,0.5]];portConstraint=eastwest;whiteSpace=wrap;html=1;" vertex="1" parent="fCUDUSnnxGfV7PFgLBU8-13">
          <mxGeometry y="26" width="210" height="26" as="geometry" />
        </mxCell>
        <mxCell id="fCUDUSnnxGfV7PFgLBU8-17" value="- name: String" style="text;strokeColor=none;fillColor=none;align=left;verticalAlign=top;spacingLeft=4;spacingRight=4;overflow=hidden;rotatable=0;points=[[0,0.5],[1,0.5]];portConstraint=eastwest;whiteSpace=wrap;html=1;" vertex="1" parent="fCUDUSnnxGfV7PFgLBU8-13">
          <mxGeometry y="52" width="210" height="26" as="geometry" />
        </mxCell>
        <mxCell id="fCUDUSnnxGfV7PFgLBU8-18" value="- playing: boolean" style="text;strokeColor=none;fillColor=none;align=left;verticalAlign=top;spacingLeft=4;spacingRight=4;overflow=hidden;rotatable=0;points=[[0,0.5],[1,0.5]];portConstraint=eastwest;whiteSpace=wrap;html=1;" vertex="1" parent="fCUDUSnnxGfV7PFgLBU8-13">
          <mxGeometry y="78" width="210" height="26" as="geometry" />
        </mxCell>
        <mxCell id="fCUDUSnnxGfV7PFgLBU8-41" value="- activeDevice: Device" style="text;strokeColor=none;fillColor=none;align=left;verticalAlign=top;spacingLeft=4;spacingRight=4;overflow=hidden;rotatable=0;points=[[0,0.5],[1,0.5]];portConstraint=eastwest;whiteSpace=wrap;html=1;" vertex="1" parent="fCUDUSnnxGfV7PFgLBU8-13">
          <mxGeometry y="104" width="210" height="26" as="geometry" />
        </mxCell>
        <mxCell id="fCUDUSnnxGfV7PFgLBU8-44" value="- currentTrack: Track" style="text;strokeColor=none;fillColor=none;align=left;verticalAlign=top;spacingLeft=4;spacingRight=4;overflow=hidden;rotatable=0;points=[[0,0.5],[1,0.5]];portConstraint=eastwest;whiteSpace=wrap;html=1;" vertex="1" parent="fCUDUSnnxGfV7PFgLBU8-13">
          <mxGeometry y="130" width="210" height="26" as="geometry" />
        </mxCell>
        <mxCell id="fCUDUSnnxGfV7PFgLBU8-15" value="" style="line;strokeWidth=1;fillColor=none;align=left;verticalAlign=middle;spacingTop=-1;spacingLeft=3;spacingRight=3;rotatable=0;labelPosition=right;points=[];portConstraint=eastwest;strokeColor=inherit;" vertex="1" parent="fCUDUSnnxGfV7PFgLBU8-13">
          <mxGeometry y="156" width="210" height="8" as="geometry" />
        </mxCell>
        <mxCell id="fCUDUSnnxGfV7PFgLBU8-16" value="+ play(Track): Player" style="text;strokeColor=none;fillColor=none;align=left;verticalAlign=top;spacingLeft=4;spacingRight=4;overflow=hidden;rotatable=0;points=[[0,0.5],[1,0.5]];portConstraint=eastwest;whiteSpace=wrap;html=1;" vertex="1" parent="fCUDUSnnxGfV7PFgLBU8-13">
          <mxGeometry y="164" width="210" height="26" as="geometry" />
        </mxCell>
        <mxCell id="fCUDUSnnxGfV7PFgLBU8-20" value="+ stop(): Player" style="text;strokeColor=none;fillColor=none;align=left;verticalAlign=top;spacingLeft=4;spacingRight=4;overflow=hidden;rotatable=0;points=[[0,0.5],[1,0.5]];portConstraint=eastwest;whiteSpace=wrap;html=1;" vertex="1" parent="fCUDUSnnxGfV7PFgLBU8-13">
          <mxGeometry y="190" width="210" height="26" as="geometry" />
        </mxCell>
        <mxCell id="fCUDUSnnxGfV7PFgLBU8-43" value="+ resume(): Player" style="text;strokeColor=none;fillColor=none;align=left;verticalAlign=top;spacingLeft=4;spacingRight=4;overflow=hidden;rotatable=0;points=[[0,0.5],[1,0.5]];portConstraint=eastwest;whiteSpace=wrap;html=1;" vertex="1" parent="fCUDUSnnxGfV7PFgLBU8-13">
          <mxGeometry y="216" width="210" height="26" as="geometry" />
        </mxCell>
        <mxCell id="fCUDUSnnxGfV7PFgLBU8-21" value="+ playOn(ActiveDevice): Player" style="text;strokeColor=none;fillColor=none;align=left;verticalAlign=top;spacingLeft=4;spacingRight=4;overflow=hidden;rotatable=0;points=[[0,0.5],[1,0.5]];portConstraint=eastwest;whiteSpace=wrap;html=1;" vertex="1" parent="fCUDUSnnxGfV7PFgLBU8-13">
          <mxGeometry y="242" width="210" height="26" as="geometry" />
        </mxCell>
        <mxCell id="fCUDUSnnxGfV7PFgLBU8-22" value="Track" style="swimlane;fontStyle=1;align=center;verticalAlign=top;childLayout=stackLayout;horizontal=1;startSize=26;horizontalStack=0;resizeParent=1;resizeParentMax=0;resizeLast=0;collapsible=1;marginBottom=0;whiteSpace=wrap;html=1;" vertex="1" parent="1">
          <mxGeometry x="360" y="830" width="160" height="112" as="geometry" />
        </mxCell>
        <mxCell id="fCUDUSnnxGfV7PFgLBU8-23" value="- id: TrackId" style="text;strokeColor=none;fillColor=none;align=left;verticalAlign=top;spacingLeft=4;spacingRight=4;overflow=hidden;rotatable=0;points=[[0,0.5],[1,0.5]];portConstraint=eastwest;whiteSpace=wrap;html=1;" vertex="1" parent="fCUDUSnnxGfV7PFgLBU8-22">
          <mxGeometry y="26" width="160" height="26" as="geometry" />
        </mxCell>
        <mxCell id="fCUDUSnnxGfV7PFgLBU8-26" value="- name: String" style="text;strokeColor=none;fillColor=none;align=left;verticalAlign=top;spacingLeft=4;spacingRight=4;overflow=hidden;rotatable=0;points=[[0,0.5],[1,0.5]];portConstraint=eastwest;whiteSpace=wrap;html=1;" vertex="1" parent="fCUDUSnnxGfV7PFgLBU8-22">
          <mxGeometry y="52" width="160" height="26" as="geometry" />
        </mxCell>
        <mxCell id="fCUDUSnnxGfV7PFgLBU8-24" value="" style="line;strokeWidth=1;fillColor=none;align=left;verticalAlign=middle;spacingTop=-1;spacingLeft=3;spacingRight=3;rotatable=0;labelPosition=right;points=[];portConstraint=eastwest;strokeColor=inherit;" vertex="1" parent="fCUDUSnnxGfV7PFgLBU8-22">
          <mxGeometry y="78" width="160" height="8" as="geometry" />
        </mxCell>
        <mxCell id="fCUDUSnnxGfV7PFgLBU8-25" value="+ method(type): type" style="text;strokeColor=none;fillColor=none;align=left;verticalAlign=top;spacingLeft=4;spacingRight=4;overflow=hidden;rotatable=0;points=[[0,0.5],[1,0.5]];portConstraint=eastwest;whiteSpace=wrap;html=1;" vertex="1" parent="fCUDUSnnxGfV7PFgLBU8-22">
          <mxGeometry y="86" width="160" height="26" as="geometry" />
        </mxCell>
        <mxCell id="fCUDUSnnxGfV7PFgLBU8-27" value="User" style="swimlane;fontStyle=1;align=center;verticalAlign=top;childLayout=stackLayout;horizontal=1;startSize=26;horizontalStack=0;resizeParent=1;resizeParentMax=0;resizeLast=0;collapsible=1;marginBottom=0;whiteSpace=wrap;html=1;" vertex="1" parent="1">
          <mxGeometry x="140" y="830" width="160" height="112" as="geometry" />
        </mxCell>
        <mxCell id="fCUDUSnnxGfV7PFgLBU8-28" value="- id: UserId" style="text;strokeColor=none;fillColor=none;align=left;verticalAlign=top;spacingLeft=4;spacingRight=4;overflow=hidden;rotatable=0;points=[[0,0.5],[1,0.5]];portConstraint=eastwest;whiteSpace=wrap;html=1;" vertex="1" parent="fCUDUSnnxGfV7PFgLBU8-27">
          <mxGeometry y="26" width="160" height="26" as="geometry" />
        </mxCell>
        <mxCell id="fCUDUSnnxGfV7PFgLBU8-29" value="- name: String" style="text;strokeColor=none;fillColor=none;align=left;verticalAlign=top;spacingLeft=4;spacingRight=4;overflow=hidden;rotatable=0;points=[[0,0.5],[1,0.5]];portConstraint=eastwest;whiteSpace=wrap;html=1;" vertex="1" parent="fCUDUSnnxGfV7PFgLBU8-27">
          <mxGeometry y="52" width="160" height="26" as="geometry" />
        </mxCell>
        <mxCell id="fCUDUSnnxGfV7PFgLBU8-30" value="" style="line;strokeWidth=1;fillColor=none;align=left;verticalAlign=middle;spacingTop=-1;spacingLeft=3;spacingRight=3;rotatable=0;labelPosition=right;points=[];portConstraint=eastwest;strokeColor=inherit;" vertex="1" parent="fCUDUSnnxGfV7PFgLBU8-27">
          <mxGeometry y="78" width="160" height="8" as="geometry" />
        </mxCell>
        <mxCell id="fCUDUSnnxGfV7PFgLBU8-31" value="+ method(type): type" style="text;strokeColor=none;fillColor=none;align=left;verticalAlign=top;spacingLeft=4;spacingRight=4;overflow=hidden;rotatable=0;points=[[0,0.5],[1,0.5]];portConstraint=eastwest;whiteSpace=wrap;html=1;" vertex="1" parent="fCUDUSnnxGfV7PFgLBU8-27">
          <mxGeometry y="86" width="160" height="26" as="geometry" />
        </mxCell>
        <mxCell id="fCUDUSnnxGfV7PFgLBU8-32" value="Device" style="swimlane;fontStyle=1;align=center;verticalAlign=top;childLayout=stackLayout;horizontal=1;startSize=26;horizontalStack=0;resizeParent=1;resizeParentMax=0;resizeLast=0;collapsible=1;marginBottom=0;whiteSpace=wrap;html=1;" vertex="1" parent="1">
          <mxGeometry x="370" y="540" width="160" height="138" as="geometry" />
        </mxCell>
        <mxCell id="fCUDUSnnxGfV7PFgLBU8-33" value="- id: DeviceId" style="text;strokeColor=none;fillColor=none;align=left;verticalAlign=top;spacingLeft=4;spacingRight=4;overflow=hidden;rotatable=0;points=[[0,0.5],[1,0.5]];portConstraint=eastwest;whiteSpace=wrap;html=1;" vertex="1" parent="fCUDUSnnxGfV7PFgLBU8-32">
          <mxGeometry y="26" width="160" height="26" as="geometry" />
        </mxCell>
        <mxCell id="fCUDUSnnxGfV7PFgLBU8-34" value="- name: String" style="text;strokeColor=none;fillColor=none;align=left;verticalAlign=top;spacingLeft=4;spacingRight=4;overflow=hidden;rotatable=0;points=[[0,0.5],[1,0.5]];portConstraint=eastwest;whiteSpace=wrap;html=1;" vertex="1" parent="fCUDUSnnxGfV7PFgLBU8-32">
          <mxGeometry y="52" width="160" height="26" as="geometry" />
        </mxCell>
        <mxCell id="fCUDUSnnxGfV7PFgLBU8-37" value="- active: boolean" style="text;strokeColor=none;fillColor=none;align=left;verticalAlign=top;spacingLeft=4;spacingRight=4;overflow=hidden;rotatable=0;points=[[0,0.5],[1,0.5]];portConstraint=eastwest;whiteSpace=wrap;html=1;" vertex="1" parent="fCUDUSnnxGfV7PFgLBU8-32">
          <mxGeometry y="78" width="160" height="26" as="geometry" />
        </mxCell>
        <mxCell id="fCUDUSnnxGfV7PFgLBU8-35" value="" style="line;strokeWidth=1;fillColor=none;align=left;verticalAlign=middle;spacingTop=-1;spacingLeft=3;spacingRight=3;rotatable=0;labelPosition=right;points=[];portConstraint=eastwest;strokeColor=inherit;" vertex="1" parent="fCUDUSnnxGfV7PFgLBU8-32">
          <mxGeometry y="104" width="160" height="8" as="geometry" />
        </mxCell>
        <mxCell id="fCUDUSnnxGfV7PFgLBU8-36" value="+ method(type): type" style="text;strokeColor=none;fillColor=none;align=left;verticalAlign=top;spacingLeft=4;spacingRight=4;overflow=hidden;rotatable=0;points=[[0,0.5],[1,0.5]];portConstraint=eastwest;whiteSpace=wrap;html=1;" vertex="1" parent="fCUDUSnnxGfV7PFgLBU8-32">
          <mxGeometry y="112" width="160" height="26" as="geometry" />
        </mxCell>
      </root>
    </mxGraphModel>
  </diagram>
</mxfile>
